<svg width="45" height="32" viewBox="0 0 45 32" fill="none" xmlns="http://www.w3.org/2000/svg">
<rect x="0.0234375" width="44" height="32" rx="4" fill="black" fill-opacity="0.6"/>
<path d="M16.8138 8.5C16.0084 8.5 15.3555 9.15292 15.3555 9.95833V22.0417C15.3555 22.8471 16.0084 23.5 16.8138 23.5H19.7305C20.5359 23.5 21.1888 22.8471 21.1888 22.0417V9.95833C21.1888 9.15292 20.5359 8.5 19.7305 8.5H16.8138ZM24.3138 8.5C23.5084 8.5 22.8555 9.15292 22.8555 9.95833V22.0417C22.8555 22.8471 23.5084 23.5 24.3138 23.5H27.2305C28.0359 23.5 28.6888 22.8471 28.6888 22.0417V9.95833C28.6888 9.15292 28.0359 8.5 27.2305 8.5H24.3138Z" fill="white"/>
</svg>
